<svg width="341.647" height="240" viewBox="0 0 341.647 240" fill="none" xmlns="http://www.w3.org/2000/svg"><path d="m196.018 100.021 0.009 0.009 0.014 0.023 0.036 0.06 0.087 0.15q0.105 0.169 0.254 0.432c0.195 0.333 0.466 0.822 0.754 1.395a22.56 22.56 0 0 1 1.036 2.391c0.212 0.585 1.101 3.01 0.977 6.084v0.02a15.586 15.586 0 0 1 -2.863 8.295 18.624 18.624 0 0 1 -2.697 3.038 22.56 22.56 0 0 1 -2.391 1.889l-0.102 0.065 -0.003 0.006 -0.045 0.028 -0.158 0.11 -0.576 0.387a290.88 290.88 0 0 1 -8.471 5.486 355.68 355.68 0 0 1 -7.522 4.537c-1.079 0.636 -2.025 1.186 -2.739 1.604l-0.876 0.511 -0.324 0.192 -0.003 -0.003c-1.46 0.889 -3.222 1.767 -4.382 2.34l-0.774 0.384a11.52 11.52 0 0 0 0.164 1.242l0.228 1.095 0.003 0.006c0.74 3.396 1.02 6.398 0.966 10.713 -0.057 4.71 -0.516 11.644 -4.794 18.257h-0.003c-4.193 6.489 -10.272 10.871 -17.172 12.471 -1.356 0.311 -2.852 0.593 -3.888 0.782l-1.356 0.24 -0.407 0.065 -0.119 0.02q-0.023 0 -0.036 0.009h-0.012v0.003h-0.034l-28.938 4.646 0.212 1.494c0.316 2.202 0.7 4.812 0.785 5.484 0.121 0.96 0.252 2.417 0.276 4.02 0.023 1.389 -0.009 3.953 -0.663 6.612v0.017a15.168 15.168 0 0 1 -5.215 8.244 16.08 16.08 0 0 1 -5.599 2.852l-0.009 0.006 -1.031 0.35a157.92 157.92 0 0 1 -16.34 4.557c-4.62 1.02 -9.817 1.844 -13.383 2.487v0.003c-3.558 0.647 -6.743 1.22 -9.036 1.635l-2.702 0.486 -0.734 0.132 -0.189 0.036 -0.051 0.009h-0.017l-0.108 0.023h-0.014l-0.017 0.006q-0.017 0 -0.039 0.006l-0.121 0.017 -0.37 0.062c-0.3 0.045 -0.706 0.108 -1.186 0.169 -0.909 0.121 -2.298 0.282 -3.764 0.35v0.006a20.88 20.88 0 0 1 -7.412 -0.994c-2.061 -0.669 -6.141 -2.366 -9.027 -6.579a25.152 25.152 0 0 1 -3.106 -6.364 25.44 25.44 0 0 1 -0.754 -2.86l-0.057 -0.282 -0.02 -0.121 -0.009 -0.057 -0.006 -0.025v-0.02l11.139 -1.869v0.012l0.003 0.014 0.009 0.039 0.023 0.113q0.028 0.147 0.076 0.367c0.071 0.302 0.178 0.711 0.336 1.191 0.305 0.937 0.828 2.228 1.68 3.476 0.855 1.251 2.191 1.895 3.204 2.225a9.744 9.744 0 0 0 3.388 0.452l1.502 -0.113a39.36 39.36 0 0 0 2.242 -0.288l0.274 -0.045 0.076 -0.014h0.023l0.006 -0.006h0.031l0.012 -0.006 0.051 -0.009 0.189 -0.034 0.732 -0.132 2.705 -0.489 9.033 -1.632c3.948 -0.714 8.617 -1.446 12.954 -2.406a146.88 146.88 0 0 0 16.433 -4.662l0.378 -0.105c0.432 -0.132 1.011 -0.361 1.53 -0.777 0.855 -0.689 1.175 -1.561 1.324 -2.154 0.302 -1.231 0.35 -2.637 0.333 -3.738a28.32 28.32 0 0 0 -0.189 -2.781c-0.156 -1.248 -1.367 -9.298 -1.494 -10.673 -0.195 -2.112 -1.197 -4.02 -2.414 -5.399 -0.271 -0.305 -0.466 -0.519 -0.66 -0.751q-0.135 -0.169 -0.226 -0.297 0.13 -0.068 0.3 -0.135a9.6 9.6 0 0 1 1.785 -0.5h0.012l40.055 -6.426h0.009l0.009 -0.003 0.028 -0.003 0.099 -0.017 0.364 -0.065a74.4 74.4 0 0 0 4.584 -0.887c3.823 -0.884 7.511 -3.377 10.241 -7.601 2.484 -3.846 2.937 -8.087 2.988 -12.263 0.045 -3.62 -0.183 -5.754 -0.706 -8.172 -0.423 -1.94 -0.66 -3.126 -0.714 -5.836 -0.073 -3.868 1.155 -6.327 3.332 -7.5 1.152 -0.621 2.468 -1.265 3.778 -1.914 1.257 -0.621 2.567 -1.276 3.529 -1.863l-0.003 -0.003c0.669 -0.409 6.444 -3.716 11.364 -6.782l0.003 0.003a271.2 271.2 0 0 0 8.132 -5.271l0.542 -0.364 0.135 -0.093 0.006 -0.006 0.012 -0.006 0.028 -0.02q0.039 -0.023 0.093 -0.062a9.888 9.888 0 0 0 1.158 -0.912c0.316 -0.288 0.717 -0.692 1.059 -1.18 0.313 -0.449 0.782 -1.248 0.825 -2.284a4.8 4.8 0 0 0 -0.319 -1.796 11.52 11.52 0 0 0 -0.505 -1.149 16.8 16.8 0 0 0 -0.452 -0.839l-0.15 -0.26 -0.045 -0.073 -0.014 -0.025 -0.006 -0.009 -0.006 -0.006c9.278 -5.737 9.594 -5.929 9.606 -5.935zm-167.952 -16.236 42.141 -25.646 0.048 -0.028 0.042 -0.028 0.135 -0.087 0.531 -0.333a353.76 353.76 0 0 1 8.612 -5.229c5.303 -3.111 11.652 -6.627 16.224 -8.527 6.777 -2.809 11.604 -4.272 15.905 -5.054 4.303 -0.782 8.194 -0.903 13.191 -0.921 7.779 -0.028 14.004 1.601 18.463 3.369l-0.025 0.164 -0.025 0.172 -0.014 0.124v0.023q0.028 -0.243 0.073 -0.48 0.655 0.257 1.257 0.519c2.259 0.977 3.972 1.948 5.108 2.665a23.04 23.04 0 0 1 1.254 0.844q0.204 0.147 0.291 0.217l0.048 0.036 0.014 0.012 0.073 0.062a13.92 13.92 0 0 0 1.044 0.748c0.316 0.198 0.734 0.441 1.194 0.636 0.418 0.175 1.124 0.429 1.948 0.401l0.017 -0.003c1.5 -0.06 2.73 -0.621 3.555 -1.572a4.032 4.032 0 0 0 0.737 -1.242q0.039 -0.113 0.068 -0.215l0.463 0.311 0.429 0.3 0.13 0.09 0.034 0.028 0.009 0.003v0.003l0.076 0.048 -6.057 9.27 0.006 0.003c0.327 -0.508 1.545 -2.375 6.051 -9.273l0.012 0.012 0.012 0.006 0.096 0.057 0.192 0.113q0.234 0.132 0.615 0.308c0.5 0.223 1.214 0.48 2.073 0.63l0.006 0.003c1.367 0.234 2.652 0.11 3.527 -0.039a11.52 11.52 0 0 0 1.44 -0.339l0.105 -0.034 0.014 -0.006 9.919 -2.914 0.169 -0.057h0.006l0.012 -0.006 0.048 -0.017 0.164 -0.06 0.57 -0.226a41.28 41.28 0 0 0 1.875 -0.788c1.398 -0.624 3.326 -1.575 4.698 -2.671l1.356 -1.039c1.271 -0.929 2.34 -1.536 3.529 -1.943 2.697 -0.918 5.241 -1.398 7.666 -1.807 2.329 -0.39 4.809 -0.748 6.932 -1.437l1.068 -0.372c2.479 -0.929 4.828 -2.222 6.102 -3.204l0.297 -0.22c0.396 0.61 1.383 1.985 2.772 3.309 1.482 1.412 3.897 3.23 6.876 3.366 3.769 0.175 6.924 -1.965 8.148 -2.652l0.009 -0.006a205.92 205.92 0 0 1 5.664 -3.078c0.621 -0.305 1.875 -0.876 3.399 -0.994a59.52 59.52 0 0 1 3.03 -0.158h17.207q0.11 0.003 0.311 0.02c0.276 0.023 0.66 0.06 1.087 0.127 0.946 0.15 1.731 0.384 2.129 0.636h0.003c1.497 0.937 3.727 3.168 5.289 5.455 0.926 1.356 2.169 2.953 3.6 4.359 1.392 1.367 3.177 2.761 5.215 3.402 3.588 1.129 8.508 0.627 11.935 -0.988 1.251 -0.593 4.368 -1.852 7.398 -3.038a324.96 324.96 0 0 1 5.481 -2.081l0.446 -0.156 0.153 -0.048c1.065 -0.297 2.191 -0.771 5.286 -0.751 5.469 0.034 12.903 4.695 12.836 14.521 -0.073 10.941 -9.699 17.249 -16.972 17.325 -7.533 0.082 -13.917 -3.303 -21.21 -8.425l-1.849 -1.31a101.76 101.76 0 0 1 -9.501 -7.596 163.68 163.68 0 0 0 -9.097 -7.454c-5.788 -4.425 -11.148 -7.593 -12.759 -8.457a12.144 12.144 0 0 0 -2.31 -1.025 7.344 7.344 0 0 0 -1.965 -0.294l-0.666 0.003c-1.66 0.051 -3.055 0.819 -4.032 1.539a14.112 14.112 0 0 0 -2.465 2.406c-0.375 0.466 -3.126 4.196 -5.794 7.801a1917.119 1917.119 0 0 1 -5.148 6.918l-0.573 0.745 -0.039 0.054 -0.012 0.014c-0.751 0.892 -2.634 2.852 -4.526 3.888l-0.375 0.192c-1.209 0.576 -2.225 0.873 -4.066 0.873 -0.367 0 -1.593 -0.02 -3.337 -0.036 -1.719 -0.02 -3.905 -0.036 -6.127 -0.039 -2.217 0 -4.489 0.017 -6.393 0.068 -1.796 0.045 -3.54 0.127 -4.503 0.316 -6.607 1.299 -12.548 5.76 -15.402 9.476 -2.626 3.422 -4.642 6.706 -5.001 11.641 -0.102 1.383 -0.192 6.195 -0.254 10.509l-0.073 5.862 -0.02 1.875 -0.006 0.519v0.223l-11.297 0.048v-0.381l0.009 -0.528 0.02 -1.884c0.02 -1.567 0.042 -3.69 0.076 -5.895 0.057 -4.083 0.144 -9.363 0.276 -11.175 0.599 -8.169 4.151 -13.581 7.313 -17.692a35.28 35.28 0 0 1 5.873 -5.895l-7.194 2.112 -0.062 0.023a23.52 23.52 0 0 1 -2.866 0.681 21.744 21.744 0 0 1 -7.35 0.042l-0.017 -0.003 -0.201 -0.039a16.944 16.944 0 0 1 -5.932 1.316h-0.071a15.936 15.936 0 0 1 -6.732 -1.276 19.68 19.68 0 0 1 -2.863 -1.516 22.56 22.56 0 0 1 -2.039 -1.46 13.92 13.92 0 0 0 -0.649 -0.432 26.4 26.4 0 0 0 -3.572 -1.858c-3.315 -1.434 -8.448 -2.985 -15.196 -2.959 -4.884 0.017 -7.943 0.141 -11.215 0.737 -3.261 0.593 -7.287 1.759 -13.596 4.377 -3.783 1.57 -9.538 4.727 -14.835 7.833a341.76 341.76 0 0 0 -8.823 5.364l-0.119 0.079 -0.028 0.017 -0.003 0.003 -0.243 0.153 -41.929 25.519q-0.023 0.02 -0.057 0.039a12.48 12.48 0 0 0 -0.847 0.692c-0.81 0.729 -1.375 1.44 -1.629 1.929a5.088 5.088 0 0 0 -0.537 2.013c1.107 0.37 3.069 1.14 5.054 2.739l0.861 0.745 0.014 0.014a17.52 17.52 0 0 1 4.461 6.822 18.336 18.336 0 0 1 0.876 3.456l0.663 4.476q0.051 0.246 0.096 0.497l13.663 81.899 7.113 -1.284c4.518 -0.819 8.4 -1.412 12.311 -2.276 2.109 -0.466 4.066 -0.96 5.822 -1.434l-0.367 -2.598 -0.028 -0.206a22.56 22.56 0 0 1 -1.101 -1.513 17.232 17.232 0 0 1 -2.886 -9.487c0 -6.183 3.459 -10.221 5.678 -12.124a19.776 19.776 0 0 1 5.664 -3.337 26.544 26.544 0 0 1 5.043 -1.412l0.15 -0.028 0.062 -0.009 0.039 -0.009h0.006c0.003 0 0.006 0 1.796 11.153h-0.009l-0.02 0.003 -0.062 0.009 -0.198 0.039a16.08 16.08 0 0 0 -2.676 0.768 8.496 8.496 0 0 0 -2.442 1.404c-0.802 0.686 -1.734 1.863 -1.734 3.543 0 1.378 0.503 2.479 1.044 3.309 0.494 0.759 1.152 1.468 1.553 1.92 0.588 0.663 0.96 1.482 1.025 2.18 0.132 1.437 1.412 10.063 1.513 10.86a21.12 21.12 0 0 1 0.147 2.166 14.4 14.4 0 0 1 -0.051 1.449c-1.734 0.576 -5.938 2.061 -12.18 3.603l-3.343 0.78c-2.095 0.466 -4.249 0.87 -6.393 1.251l-6.35 1.113 -11.732 2.121 -0.732 0.132 -0.189 0.034 -0.051 0.009h-0.014l-0.045 0.009a36.96 36.96 0 0 1 -2.166 0.285l-1.203 0.093a4.224 4.224 0 0 1 -1.38 -0.18 1.92 1.92 0 0 1 -0.353 -0.153 8.496 8.496 0 0 1 -1.107 -2.654l-0.042 -0.178v-0.02L31.956 118.588a2.88 2.88 0 0 0 -0.068 -0.297l-0.72 -4.884 -0.014 -0.102a6.72 6.72 0 0 0 -0.311 -1.158 6.211 6.211 0 0 0 -1.567 -2.428h-0.003l-0.234 -0.204a5.088 5.088 0 0 0 -1.561 -0.828 8.496 8.496 0 0 0 -1.423 -0.319 11.52 11.52 0 0 0 -1.361 -0.096h-0.158l-3.202 0.042h-0.135q-0.051 0 -0.113 -0.012 -0.045 -0.124 -0.09 -0.271a5.76 5.76 0 0 1 -0.135 -0.604v-0.025l-0.943 -6.983 -0.025 -0.147 -0.014 -0.116a15.84 15.84 0 0 1 -0.084 -2.711 16.368 16.368 0 0 1 1.807 -6.706c1.101 -2.106 2.708 -3.86 4.103 -5.111a22.56 22.56 0 0 1 2.231 -1.751q0.079 -0.057 0.116 -0.079zm-2.988 -4.791 -0.009 0.009 -0.017 0.012 -0.062 0.039q-0.076 0.045 -0.201 0.13 -0.254 0.169 -0.678 0.477a28.32 28.32 0 0 0 -2.174 1.767c-1.692 1.513 -3.823 3.783 -5.345 6.7a22.128 22.128 0 0 0 -2.307 12.807l0.036 0.237 0.946 7.022 0.006 0.034v0.017l0.006 0.028q0 0.036 0.014 0.084l0.051 0.279c0.042 0.223 0.11 0.531 0.204 0.878 0.158 0.576 0.505 1.708 1.231 2.598v0.003c1.025 1.248 2.471 1.609 3.174 1.731a7.68 7.68 0 0 0 1.497 0.113h0.006l3.18 -0.039 0.025 -0.003h0.014q0.042 0 0.141 0.006c0.132 0.003 0.311 0.014 0.489 0.036q0.119 0.02 0.209 0.042l0.028 0.065 0.045 0.15v0.014l0.774 5.238q0.028 0.186 0.084 0.367l14.857 89.054 -11.139 1.863v-0.003l-14.4 -86.321a16.094 16.094 0 0 1 -7.728 -5.167l-0.014 -0.017c-2.324 -2.852 -3.156 -5.983 -3.369 -6.754a22.56 22.56 0 0 1 -0.5 -2.262l-0.034 -0.209 -0.012 -0.084 -0.009 -0.06 -0.003 -0.009v-0.006l-0.023 -0.161 -0.918 -6.833q-0.028 -0.169 -0.057 -0.37a28.32 28.32 0 0 1 -0.169 -1.485 32.64 32.64 0 0 1 -0.057 -4.492c0.195 -3.558 1.031 -8.49 3.708 -13.62 2.366 -4.532 5.534 -7.844 7.807 -9.882a39.36 39.36 0 0 1 4.111 -3.219l0.367 -0.237 0.138 -0.09 0.057 -0.036 0.028 -0.017q0.009 0 0.012 -0.009l0.009 -0.003c0.017 0.02 0.297 0.468 5.969 9.586m73.734 111.783 0.028 -0.006 0.02 -0.003zm-7.2 -0.11q0.183 -0.057 0.393 -0.113l0.003 -0.006zm85.789 -92.648v0.124a11.52 11.52 0 0 0 0.096 1.296c0.087 0.782 0.274 1.895 0.675 3.001l0.429 1.044c0.492 1.081 1.129 2.256 1.652 3.168a109.44 109.44 0 0 0 0.948 1.615l0.3 0.486 0.082 0.13 0.023 0.039q0 0.009 0.009 0.012v0.003l0.02 0.028 0.096 0.169c0.071 0.121 0.156 0.282 0.246 0.452 -0.062 0.045 -0.113 0.099 -0.167 0.135l-0.132 0.096 -0.02 0.012 -0.06 0.042 -0.009 0.006 -0.036 0.023 -0.135 0.093 -0.522 0.353a282.24 282.24 0 0 1 -7.962 5.159c-5.04 3.14 -10.281 6.121 -11.322 6.756 -0.714 0.435 -1.79 0.98 -3.097 1.626 -0.627 0.311 -1.299 0.641 -1.971 0.98l-1.977 1.02c-4.786 2.572 -6.396 7.601 -6.297 12.588 0.062 3.185 0.361 4.755 0.836 6.929 0.42 1.926 0.621 3.623 0.579 6.898 -0.048 3.908 -0.492 6.804 -2.081 9.267 -1.999 3.092 -4.492 4.636 -6.777 5.167 -0.943 0.217 -2.112 0.441 -3.069 0.615l-1.186 0.206 -0.342 0.057 -0.09 0.017 -0.023 0.003h-0.009l-40.043 6.429h-0.003l-1.79 -11.153 40.023 -6.423h0.012l0.071 -0.014 0.302 -0.051 1.068 -0.186c0.717 -0.13 1.465 -0.276 2.076 -0.409a2.88 2.88 0 0 0 0.254 -0.345c0.02 -0.048 0.051 -0.141 0.084 -0.302 0.108 -0.514 0.206 -1.392 0.226 -3.021 0.034 -2.58 -0.116 -3.408 -0.322 -4.351a41.52 41.52 0 0 1 -1.092 -9.108v-0.006c-0.141 -7.223 2.244 -17.373 12.24 -22.749 1.476 -0.796 3.145 -1.609 4.286 -2.174a90.24 90.24 0 0 0 2.052 -1.05l0.178 -0.102 0.009 -0.003c0.531 -0.324 2.462 -1.443 4.303 -2.527 2.064 -1.214 4.574 -2.708 6.921 -4.167l0.006 -0.003 0.375 -0.24a25.44 25.44 0 0 1 -1.068 -4.958 28.32 28.32 0 0 1 -0.161 -2.287l-0.006 -0.217v-0.09l-0.003 -0.039v-0.031c0 -0.003 0.028 -0.006 11.294 -0.054zM14.366 115.578l0.003 0.023 0.009 0.068 0.02 0.138zm246.805 -103.584 0.108 0.003 0.271 0.012q0.319 0.014 0.788 0.051c0.607 0.045 1.446 0.13 2.409 0.282 1.452 0.228 5.063 0.87 8.479 3.007l0.754 0.489c3.753 2.55 7.245 6.407 9.549 9.778q0.204 0.297 0.429 0.599c2.004 -0.887 5.074 -2.118 7.559 -3.092 2.567 -1.002 6.285 -2.434 7.714 -2.829 -0.252 0.068 1.548 -0.489 3.25 -0.813 1.934 -0.367 4.1 -0.564 6.669 -0.551h0.009c13.646 0.084 29.805 11.252 29.67 31.575 -0.15 22.142 -19.313 33.996 -33.741 34.148 -13.129 0.141 -23.249 -5.966 -31.124 -11.5 -5.774 -4.052 -8.708 -6.415 -12.861 -10.103a146.88 146.88 0 0 0 -8.137 -6.658l-0.006 -0.003a101.76 101.76 0 0 0 -4.65 -3.343l-1.428 1.934a2230.559 2230.559 0 0 1 -3.826 5.159c-0.895 1.2 -2.039 2.733 -2.601 3.402 -1.149 1.364 -5.15 5.868 -10.554 8.454l-0.006 0.003c-3.425 1.638 -6.932 2.53 -11.373 2.53 -0.486 0 -1.937 -0.02 -3.513 -0.036 -1.694 -0.02 -3.817 -0.036 -5.961 -0.039 -2.163 0 -4.263 0.014 -5.938 0.057a53.76 53.76 0 0 0 -1.934 0.082h-0.023a9.888 9.888 0 0 0 -2.835 1.321 12.48 12.48 0 0 0 -1.494 1.138q-0.297 0.271 -0.46 0.452 -0.084 0.09 -0.124 0.141l-0.042 0.051c-1.036 1.347 -1.344 1.903 -1.457 2.14a0.624 0.624 0 0 0 -0.045 0.113c-0.003 0.012 -0.028 0.096 -0.042 0.3v0.012c0 0.012 -0.017 0.288 -0.039 0.96 -0.02 0.618 -0.036 1.406 -0.057 2.321 -0.039 1.827 -0.076 4.052 -0.108 6.223l-0.076 5.814 -0.014 1.553q0.206 0.407 0.612 1.129a56.64 56.64 0 0 0 0.994 1.666l0.006 0.012 0.045 0.076 -9.603 5.938 -0.009 -0.014 -0.006 -0.006 -0.017 -0.028 -0.339 -0.556a59.52 59.52 0 0 1 -0.876 -1.488c-0.528 -0.921 -1.044 -1.884 -1.395 -2.649l-0.285 -0.692a7.92 7.92 0 0 1 -0.372 -1.716 11.52 11.52 0 0 1 -0.054 -0.636l-0.003 -0.164 -0.003 -0.034v-0.132l0.006 -0.516 0.02 -1.869 0.076 -5.844c0.062 -4.433 0.147 -9.007 0.234 -10.176l0.057 -0.61c0.345 -2.99 1.575 -5.119 3.792 -8.004 2.137 -2.781 6.935 -6.375 12.017 -7.375 0.404 -0.079 1.629 -0.164 3.558 -0.215a242.88 242.88 0 0 1 6.246 -0.065c2.194 0 4.356 0.023 6.068 0.039 1.689 0.017 2.988 0.034 3.394 0.034 2.711 0 4.557 -0.494 6.505 -1.423 3.143 -1.505 5.868 -4.447 6.785 -5.537 0.508 -0.604 3.332 -4.416 5.988 -8.007l3.756 -5.076 1.31 -1.762 0.415 -0.548 0.124 -0.169 0.048 -0.06v-0.006c0.418 -0.519 0.924 -1.033 1.42 -1.401 0.528 -0.39 0.81 -0.435 0.847 -0.438l0.601 0.012a1.44 1.44 0 0 1 0.274 0.051c0.198 0.057 0.48 0.178 1.231 0.582 1.361 0.729 6.463 3.735 11.994 7.965l0.003 0.006a157.92 157.92 0 0 1 8.775 7.186c3.823 3.394 6.42 5.489 11.859 9.306 7.488 5.26 15.114 9.549 24.511 9.45 9.66 -0.102 22.467 -8.259 22.563 -22.935 0.09 -13.324 -10.252 -20.154 -18.449 -20.205 -3.95 -0.025 -5.748 0.655 -6.83 0.954 -0.714 0.198 -3.702 1.327 -6.621 2.468 -2.985 1.166 -6.294 2.502 -7.751 3.191 -2.298 1.084 -5.751 1.367 -7.833 0.711 -0.799 -0.254 -1.824 -0.937 -2.959 -2.05a24 24 0 0 1 -2.886 -3.513c-1.86 -2.724 -4.622 -5.591 -6.963 -7.056 -1.404 -0.881 -3.132 -1.251 -4.247 -1.428a19.68 19.68 0 0 0 -1.996 -0.209l-0.138 -0.006h-0.071c0.285 -10.814 0.3 -11.271 0.302 -11.292h0.036zm-47.133 -0.073c5.196 0 8.849 2.496 10.788 4.317q0.412 0.396 0.774 0.782a146.88 146.88 0 0 1 3.964 -2.124l0.028 -0.014a26.256 26.256 0 0 1 9.558 -2.682l1.722 -0.119a70.56 70.56 0 0 1 2.287 -0.09h0.291l0.099 -0.006h17.161q0.186 0 0.372 0.006l-0.297 11.289h-17.19l-0.204 0.003 -0.745 0.023a64.8 64.8 0 0 0 -2.612 0.156 14.976 14.976 0 0 0 -5.449 1.556l-0.006 0.003c-0.935 0.463 -3.998 2.132 -5.929 3.216 -1.742 0.974 -3.168 1.9 -4.803 1.943h-0.327l-0.35 -0.042c-0.833 -0.164 -1.844 -0.777 -2.892 -1.773a14.112 14.112 0 0 1 -1.793 -2.078q-0.153 -0.226 -0.158 -0.237l-0.468 -0.706a6.24 6.24 0 0 0 -0.759 -0.867 4.464 4.464 0 0 0 -3.06 -1.26c-0.697 0 -1.452 0.079 -2.287 0.457 -0.695 0.311 -1.324 0.785 -1.884 1.214 -0.864 0.666 -3.123 1.92 -5.466 2.682 -1.618 0.525 -3.535 0.804 -6.127 1.242 -2.493 0.418 -5.404 0.957 -8.547 2.028 -2.538 0.861 -4.524 2.265 -6.59 3.916 -0.771 0.612 -2.129 1.321 -3.484 1.929a42.24 42.24 0 0 1 -2.132 0.884l-0.071 0.023 -9.919 2.916 -0.113 0.034 -0.009 0.003q-0.036 0.014 -0.135 0.042c-0.135 0.036 -0.342 0.084 -0.593 0.13a5.088 5.088 0 0 1 -1.609 0.039 3.12 3.12 0 0 1 -0.884 -0.3l-0.096 -0.065 -0.452 -0.311 -1.107 -0.754 -0.54 -0.311c-1.271 -0.633 -2.595 -0.615 -3.852 -0.353l-0.384 0.105c-0.858 0.282 -1.437 0.828 -1.764 1.2a6.24 6.24 0 0 0 -0.847 1.299l-0.051 0.105 -0.028 -0.017 -0.121 -0.096 -0.02 -0.02 -0.028 -0.02 -1.05 1.287h-0.003l0.819 -1.005 0.231 -0.285 -0.006 -0.003 -0.014 -0.012q-0.014 -0.014 -0.039 -0.028 -0.045 -0.039 -0.121 -0.096 -0.15 -0.119 -0.42 -0.319a31.2 31.2 0 0 0 -1.559 -1.044 43.488 43.488 0 0 0 -5.873 -3.072c-5.111 -2.214 -12.553 -4.393 -21.996 -4.356 -5.054 0.02 -9.363 0.135 -14.18 1.011 -4.823 0.876 -10.052 2.49 -17.057 5.396 -4.969 2.061 -11.613 5.76 -16.919 8.874a361.44 361.44 0 0 0 -8.756 5.311l-0.548 0.348 -0.141 0.09 -0.034 0.02 -42.133 25.646 -0.025 0.012 -5.964 -9.589 0.119 -0.071 42.107 -25.632 0.034 -0.02 0.576 -0.367a368.64 368.64 0 0 1 9.049 -5.492c5.308 -3.114 12.545 -7.172 18.302 -9.561 7.474 -3.1 13.508 -5.012 19.369 -6.079 5.847 -1.062 10.983 -1.172 16.153 -1.191 11.238 -0.042 20.222 2.556 26.527 5.286q1.855 0.81 3.402 1.607 0.508 -0.15 1.053 -0.268c2.778 -0.585 6.943 -0.841 11.198 1.276l6.804 -2.002 0.051 -0.014a32.16 32.16 0 0 0 1.18 -0.5c1.268 -0.567 1.482 -0.791 1.044 -0.444 2.343 -1.872 5.568 -4.272 10.004 -5.78 4.038 -1.375 7.68 -2.036 10.314 -2.479 3.108 -0.522 3.908 -0.649 4.506 -0.844h0.006a12.144 12.144 0 0 0 2.236 -1.022c0.147 -0.09 0.062 -0.051 -0.178 0.135 0.48 -0.372 2.076 -1.638 4.128 -2.564a16.656 16.656 0 0 1 6.937 -1.457m93.945 35.271 -0.223 0.025h-0.006l-0.014 0.006 -0.045 0.009 -0.268 0.079 -0.305 0.087c0.18 -0.057 0.18 -0.065 -0.156 0.057l-1.257 0.466a297.6 297.6 0 0 0 -3.919 1.502c-3.12 1.22 -5.853 2.338 -6.689 2.733q-0.508 0.237 -1.042 0.457c4.62 2.852 7.703 3.84 10.729 3.806 0.627 -0.006 2.332 -0.435 3.828 -1.759 1.214 -1.073 1.956 -2.403 1.971 -4.348 0.006 -1.044 -0.183 -1.638 -0.311 -1.932a1.968 1.968 0 0 0 -0.486 -0.706 2.256 2.256 0 0 0 -0.912 -0.514 11.52 11.52 0 0 0 -0.898 0.028m-96.511 -4.173q-0.924 0.359 -1.838 0.66c-3.14 1.017 -6.74 1.53 -8.55 1.836 -2.259 0.381 -4.049 0.74 -5.828 1.341l-0.249 0.161q0.483 -0.11 0.972 -0.206l0.81 -0.138c1.948 -0.291 4.244 -0.353 5.574 -0.387 2.052 -0.057 4.444 -0.071 6.7 -0.071 2.276 0 4.5 0.023 6.24 0.042l2.194 0.025h0.415l0.025 -0.02a22.32 22.32 0 0 1 -6.466 -3.244m-56.965 0.084 0.006 -0.031 0.012 -0.065 0.023 -0.119 0.02 -0.071zm-0.658 -0.599h-0.003l-10.137 -2.818v-0.006zm-10.484 -1.203 -0.009 -0.003 0.028 -0.186 0.057 -0.268zm11.997 -0.658v0.006l2.541 -3.111 -0.006 -0.009zm-11.868 -0.073q0.017 -0.099 0.039 -0.198 0.039 -0.175 0.09 -0.353 -0.071 0.276 -0.13 0.551m14.406 -3.047 0.003 0.009 4.137 -5.065 -0.012 -0.009c0.006 0.003 0.003 0 -4.128 5.065" fill="#15151E"/></svg>